<svg width="50" height="50" viewBox="0 0 50 50" fill="none" xmlns="http://www.w3.org/2000/svg">
<rect width="50" height="50" fill="white" style="mix-blend-mode:multiply"/>
<path d="M43.75 26.5625V34.375H6.25V9.375H21.875V6.25H6.25C5.4212 6.25 4.62634 6.57924 4.04029 7.16529C3.45424 7.75134 3.125 8.5462 3.125 9.375V34.375C3.125 35.2038 3.45424 35.9987 4.04029 36.5847C4.62634 37.1708 5.4212 37.5 6.25 37.5H18.75V43.75H12.5V46.875H37.5V43.75H31.25V37.5H43.75C44.5788 37.5 45.3737 37.1708 45.9597 36.5847C46.5458 35.9987 46.875 35.2038 46.875 34.375V26.5625H43.75ZM28.125 43.75H21.875V37.5H28.125V43.75Z" fill="#161616"/>
<path d="M46.875 15.625V12.5H43.592C43.3906 11.522 43.0023 10.592 42.4484 9.76109L44.7766 7.43297L42.5672 5.22359L40.2391 7.55172C39.4081 6.99782 38.4781 6.60947 37.5 6.40797V3.125H34.375V6.40797C33.397 6.60945 32.467 6.99774 31.6361 7.55156L29.308 5.22344L27.0986 7.43281L29.4267 9.76094C28.8728 10.5919 28.4845 11.5219 28.283 12.5H25V15.625H28.283C28.4844 16.603 28.8727 17.533 29.4266 18.3639L27.0984 20.692L29.3078 22.9014L31.6359 20.5733C32.4669 21.1272 33.3969 21.5155 34.375 21.717V25H37.5V21.717C38.478 21.5156 39.408 21.1273 40.2389 20.5734L42.567 22.9016L44.7764 20.6922L42.4483 18.3641C43.0022 17.5331 43.3905 16.6031 43.592 15.625H46.875ZM35.9375 18.75C35.0104 18.75 34.1041 18.4751 33.3333 17.96C32.5624 17.4449 31.9616 16.7129 31.6068 15.8563C31.252 14.9998 31.1592 14.0573 31.3401 13.148C31.5209 12.2387 31.9674 11.4035 32.6229 10.7479C33.2785 10.0924 34.1137 9.64594 35.023 9.46507C35.9323 9.2842 36.8748 9.37703 37.7313 9.73182C38.5879 10.0866 39.3199 10.6874 39.835 11.4583C40.3501 12.2291 40.625 13.1354 40.625 14.0625C40.6236 15.3053 40.1293 16.4968 39.2506 17.3756C38.3718 18.2543 37.1803 18.7486 35.9375 18.75Z" fill="#161616"/>
</svg>
