<svg width="50" height="50" viewBox="0 0 50 50" fill="none" xmlns="http://www.w3.org/2000/svg">
<rect width="50" height="50" fill="white" style="mix-blend-mode:multiply"/>
<path d="M6.25 31.25V34.375H13.4156L3.125 44.6656L5.33438 46.875L15.625 36.5844V43.75H18.75V31.25H6.25Z" fill="#161616"/>
<path d="M40.6252 32.8125H37.5002V40.625H40.6252V32.8125Z" fill="#161616"/>
<path d="M34.3752 25H31.2502V40.625H34.3752V25Z" fill="#161616"/>
<path d="M28.125 28.125H25V40.625H28.125V28.125Z" fill="#161616"/>
<path d="M43.75 3.125H6.25C5.42145 3.12583 4.62708 3.45533 4.0412 4.0412C3.45533 4.62708 3.12583 5.42145 3.125 6.25V25H6.25V20.3125H43.7516L43.7531 43.75H25V46.875H43.75C44.5785 46.8739 45.3727 46.5443 45.9585 45.9585C46.5443 45.3727 46.8739 44.5785 46.875 43.75V6.25C46.874 5.42149 46.5445 4.62719 45.9587 4.04134C45.3728 3.4555 44.5785 3.12595 43.75 3.125ZM18.75 17.1875H6.25V6.25H18.75V17.1875ZM21.875 17.1875V6.25H43.75L43.7511 17.1875H21.875Z" fill="#161616"/>
</svg>
