<svg width="50" height="50" viewBox="0 0 50 50" fill="none" xmlns="http://www.w3.org/2000/svg">
<rect width="50" height="50" fill="white" style="mix-blend-mode:multiply"/>
<path d="M20.3125 26.5625H10.9375C10.1087 26.5625 9.31384 26.8917 8.72779 27.4778C8.14174 28.0638 7.8125 28.8587 7.8125 29.6875V39.0625C7.8125 39.8913 8.14174 40.6862 8.72779 41.2722C9.31384 41.8583 10.1087 42.1875 10.9375 42.1875H20.3125C21.1413 42.1875 21.9362 41.8583 22.5222 41.2722C23.1083 40.6862 23.4375 39.8913 23.4375 39.0625V29.6875C23.4375 28.8587 23.1083 28.0638 22.5222 27.4778C21.9362 26.8917 21.1413 26.5625 20.3125 26.5625ZM10.9375 39.0625V29.6875H20.3125V39.0625H10.9375Z" fill="#161616"/>
<path d="M29.6875 32.8125V35.9375H39.0625C39.8913 35.9375 40.6862 35.6083 41.2722 35.0222C41.8583 34.4362 42.1875 33.6413 42.1875 32.8125V10.9375C42.1875 10.1087 41.8583 9.31384 41.2722 8.72779C40.6862 8.14174 39.8913 7.8125 39.0625 7.8125H17.1875C16.3587 7.8125 15.5638 8.14174 14.9778 8.72779C14.3917 9.31384 14.0625 10.1087 14.0625 10.9375V20.3125H17.1875V10.9375H39.0625V32.8125" fill="#161616"/>
</svg>
