<svg width="50" height="50" viewBox="0 0 50 50" fill="none" xmlns="http://www.w3.org/2000/svg">
<rect width="50" height="50" fill="white" style="mix-blend-mode:multiply"/>
<path d="M32.8126 24.9999H17.1876C16.359 25.0009 15.5647 25.3304 14.9789 25.9163C14.3931 26.5021 14.0635 27.2964 14.0626 28.1249V37.4999C14.0635 38.3284 14.3931 39.1227 14.9789 39.7086C15.5647 40.2944 16.359 40.624 17.1876 40.6249H23.4376V43.7499H18.7501V46.8749H31.2501V43.7499H26.5626V40.6249H32.8126C33.6411 40.624 34.4354 40.2944 35.0212 39.7086C35.6071 39.1227 35.9366 38.3284 35.9376 37.4999V28.1249C35.9366 27.2964 35.6071 26.5021 35.0212 25.9163C34.4354 25.3304 33.6411 25.0009 32.8126 24.9999ZM17.1876 37.4999V28.1249H32.8126L32.8149 37.4999H17.1876Z" fill="#161616"/>
<path d="M40.3466 15.8187C39.6649 12.2479 37.7593 9.02657 34.9581 6.70956C32.1569 4.39255 28.6354 3.12488 25.0001 3.12488C21.3648 3.12488 17.8432 4.39255 15.042 6.70956C12.2408 9.02657 10.3352 12.2479 9.65349 15.8187C6.83795 16.3201 4.30339 17.8349 2.52829 20.0772C0.753184 22.3194 -0.139634 25.134 0.0183813 27.9894C0.176397 30.8449 1.37431 33.5437 3.38598 35.5764C5.39765 37.6091 8.08388 38.835 10.9376 39.0227V35.8977C8.78658 35.7033 6.78791 34.7053 5.34008 33.1027C3.89224 31.5001 3.10163 29.4107 3.12588 27.2511C3.15013 25.0914 3.98746 23.0203 5.47091 21.4506C6.95436 19.881 8.97494 18.9281 11.1297 18.782L12.4368 18.6935L12.5774 17.3904C12.9115 14.329 14.3642 11.4987 16.6569 9.44259C18.9496 7.38648 21.9208 6.24935 25.0004 6.24935C28.08 6.24935 31.0511 7.38648 33.3438 9.44259C35.6365 11.4987 37.0893 14.329 37.4233 17.3904L37.564 18.6935L38.871 18.782C41.0258 18.9282 43.0463 19.8811 44.5297 21.4509C46.0131 23.0206 46.8503 25.0917 46.8745 27.2513C46.8987 29.411 46.108 31.5003 44.6601 33.1029C43.2122 34.7054 41.2135 35.7034 39.0626 35.8977V39.0227C41.9162 38.835 44.6025 37.6091 46.6141 35.5764C48.6258 33.5437 49.8237 30.8449 49.9817 27.9894C50.1397 25.134 49.2469 22.3194 47.4718 20.0772C45.6967 17.8349 43.1622 16.3201 40.3466 15.8187Z" fill="#161616"/>
</svg>
